<svg width="56" height="58" viewBox="0 0 56 58" fill="none" xmlns="http://www.w3.org/2000/svg">
<path d="M28.8789 13.6775C28.7711 14.1026 28.9708 14.5766 29.3708 14.7169L29.4751 14.7535L29.4809 14.7456C29.8561 14.8107 30.1995 14.5368 30.298 14.1457C31.2427 10.4126 34.2098 7.83079 37.4886 7.83079C37.9184 7.83079 38.2273 7.42983 38.2273 6.98847C38.2273 6.54709 37.9184 6.14614 37.4886 6.14614C33.3928 6.14614 29.9738 9.35059 28.8789 13.6775ZM28.8789 13.6775L29.0243 13.7144M28.8789 13.6775C28.8789 13.6775 28.8789 13.6776 28.8789 13.6776L29.0243 13.7144M29.0243 13.7144C28.9314 14.0808 29.1088 14.466 29.4204 14.5753L29.0243 13.7144Z" fill="#E61323" stroke="#F9FFF9" stroke-width="0.3"/>
<path d="M45.7296 40.9123H42.1976C41.8726 40.9123 41.6089 40.6022 41.6089 40.22C41.6089 39.8377 41.8726 39.5276 42.1976 39.5276H45.7296C50.5983 39.5276 54.5597 34.8688 54.5597 29.1429C54.5597 23.417 50.5983 18.7581 45.7296 18.7581H45.6447C45.4739 18.7581 45.3116 18.6711 45.1998 18.5193C45.088 18.3675 45.0375 18.1662 45.0619 17.9674C45.1144 17.5362 45.1409 17.103 45.1409 16.6812C45.1409 11.7188 41.7076 7.68104 37.4881 7.68104C35.8466 7.68104 34.2811 8.28435 32.9608 9.42616C32.6706 9.67688 32.2586 9.56562 32.0908 9.19028C28.3515 0.816249 18.5848 -0.308297 13.5212 6.97638C11.3882 10.0453 10.5501 14.0375 11.2217 17.9284C11.2957 18.3581 11.016 18.7587 10.6448 18.7587H10.4089C5.54015 18.7587 1.57877 23.4175 1.57877 29.1434C1.57877 34.8693 5.54015 39.5282 10.4089 39.5282H13.9409C14.2659 39.5282 14.5295 39.8382 14.5295 40.2205C14.5295 40.6027 14.2659 40.9128 13.9409 40.9128H10.4089C4.89085 40.9128 0.401367 35.6329 0.401367 29.1434C0.401367 22.8359 4.6423 17.6712 9.94675 17.3863C9.44848 13.3496 10.4013 9.27778 12.6096 6.10011C18.0309 -1.69981 28.4203 -0.825541 32.8121 7.87194C34.2132 6.83889 35.8165 6.29697 37.4879 6.29697C42.6001 6.29697 46.6511 11.4142 46.2966 17.3928C51.5522 17.7394 55.7368 22.8769 55.7368 29.1429C55.7368 35.6329 51.2473 40.9123 45.7293 40.9123L45.7296 40.9123Z" fill="#E61323"/>
<path d="M13.1233 39.8291C13.1233 49.432 19.7707 57.2872 27.9903 57.2872C36.2101 57.2872 42.8573 49.4319 42.8573 39.8291C42.8573 30.2262 36.2101 22.371 27.9903 22.371C19.7706 22.371 13.1233 30.2264 13.1233 39.8291ZM14.6009 39.8291C14.6009 31.1083 20.6294 24.0559 27.9903 24.0559C35.3511 24.0559 41.3797 31.1082 41.3797 39.8291C41.3797 48.5499 35.3511 55.6023 27.9903 55.6023C20.6295 55.6023 14.6009 48.55 14.6009 39.8291Z" fill="#E61323" stroke="#F9FFF9" stroke-width="0.3"/>
<path d="M27.6784 46.7965C27.6784 47.1355 27.9167 47.4534 28.2593 47.4534C28.602 47.4534 28.8403 47.1359 28.8403 46.7965V33.6182C28.8403 33.2792 28.602 32.9613 28.2593 32.9613C27.9166 32.9613 27.6784 33.2792 27.6784 33.6182V46.7965Z" fill="#E61323" stroke="#E61323" stroke-width="0.3"/>
<path d="M28.2593 34.5679L31.2881 38.1299C31.3989 38.2602 31.5503 38.3311 31.7071 38.3311L28.2593 34.5679ZM28.2593 34.5679L25.2307 38.1298C25.2306 38.1298 25.2306 38.1298 25.2306 38.1298L25.2306 38.1299L28.2593 34.5679ZM28.6784 33.1639C28.4502 32.8955 28.0683 32.8953 27.8403 33.1639L31.7071 38.3311C31.8636 38.3311 32.0151 38.2608 32.1261 38.1299C32.3421 37.8758 32.3421 37.4728 32.1261 37.2187L28.6784 33.1639Z" fill="#E61323" stroke="#E61323" stroke-width="0.3"/>
</svg>
